<?xml version="1.0" encoding="UTF-8" standalone="no"?>
<!-- Created with Inkscape (http://www.inkscape.org/) -->

<svg
   xmlns:dc="http://purl.org/dc/elements/1.1/"
   xmlns:cc="http://creativecommons.org/ns#"
   xmlns:rdf="http://www.w3.org/1999/02/22-rdf-syntax-ns#"
   xmlns:svg="http://www.w3.org/2000/svg"
   xmlns="http://www.w3.org/2000/svg"
   xmlns:inkscape="http://www.inkscape.org/namespaces/inkscape"
   version="1.1"
   width="1000"
   height="1000"
   id="svg2"
   xml:space="preserve"><metadata
     id="metadata8"><rdf:RDF><cc:Work
         rdf:about=""><dc:format>image/svg+xml</dc:format><dc:type
           rdf:resource="http://purl.org/dc/dcmitype/StillImage" /></cc:Work></rdf:RDF></metadata><defs
     id="defs6"><clipPath
       id="clipPath16"><path
         d="M 0.003,0 800,0 l 0,800 -799.997,0 0,-800 z"
         inkscape:connector-curvature="0"
         id="path18" /></clipPath><linearGradient
       x1="0"
       y1="0"
       x2="1"
       y2="0"
       id="linearGradient24"
       gradientUnits="userSpaceOnUse"
       gradientTransform="matrix(-3.5e-5,799.99951,799.99951,3.5e-5,400.03369,0)"
       spreadMethod="pad"><stop
         id="stop26"
         style="stop-color:#00aad5;stop-opacity:1"
         offset="0" /><stop
         id="stop28"
         style="stop-color:#058eb2;stop-opacity:1"
         offset="0.802158" /><stop
         id="stop30"
         style="stop-color:#058eb2;stop-opacity:1"
         offset="0.802158" /><stop
         id="stop32"
         style="stop-color:#058eb2;stop-opacity:1"
         offset="1" /></linearGradient><clipPath
       id="clipPath40"><path
         d="M 0,800 800,800 800,0 0,0 0,800 z"
         inkscape:connector-curvature="0"
         id="path42" /></clipPath><clipPath
       id="clipPath160"><path
         d="M 0,800 800,800 800,0 0,0 0,800 z"
         inkscape:connector-curvature="0"
         id="path162" /></clipPath></defs><g
     transform="matrix(1.25,0,0,-1.25,0,1000)"
     id="g10"><g
       id="g12"><g
         clip-path="url(#clipPath16)"
         id="g14"><g
           id="g20"><g
             id="g22"><path
               d="M 0.003,0 800,0 l 0,800 -799.997,0 0,-800 z"
               inkscape:connector-curvature="0"
               id="path34"
               style="fill:url(#linearGradient24);stroke:none" /></g></g></g></g><g
       id="g36"><g
         clip-path="url(#clipPath40)"
         id="g38"><g
           transform="translate(287.6562,14.8867)"
           id="g44"><path
             d="m 0,0 c -0.196,-0.428 -0.459,-0.74 -0.787,-0.947 -0.326,-0.209 -0.69,-0.313 -1.084,-0.313 -0.393,0 -0.753,0.11 -1.082,0.328 -0.331,0.217 -0.59,0.541 -0.779,0.969 -0.192,0.428 -0.288,0.949 -0.288,1.563 0,0.576 0.092,1.086 0.27,1.517 0.18,0.44 0.433,0.778 0.757,1.012 0.323,0.236 0.692,0.351 1.103,0.351 0.398,0 0.763,-0.115 1.096,-0.345 C -0.459,3.908 -0.196,3.578 0,3.146 0.193,2.715 0.292,2.199 0.292,1.6 0.292,0.961 0.193,0.426 0,0 M 1.479,9.516 C 1.141,9.516 0.877,9.396 0.691,9.162 0.508,8.926 0.416,8.574 0.416,8.113 l 0,-3.328 c -0.424,0.461 -0.855,0.805 -1.303,1.027 -0.447,0.223 -0.996,0.336 -1.644,0.336 -1.125,0 -2.03,-0.394 -2.718,-1.181 -0.687,-0.789 -1.032,-1.887 -1.032,-3.293 0,-0.67 0.084,-1.287 0.261,-1.86 0.172,-0.572 0.425,-1.074 0.763,-1.492 0.335,-0.426 0.733,-0.752 1.194,-0.982 0.459,-0.225 0.959,-0.344 1.499,-0.344 0.406,0 0.782,0.059 1.125,0.172 0.345,0.111 0.664,0.275 0.96,0.496 0.293,0.217 0.591,0.5 0.895,0.844 l 0,-0.221 c 0,-0.412 0.099,-0.732 0.302,-0.957 0.201,-0.223 0.452,-0.334 0.761,-0.334 0.316,0 0.57,0.111 0.769,0.326 0.198,0.213 0.299,0.535 0.299,0.965 l 0,9.94 C 2.547,8.654 2.454,8.971 2.271,9.191 2.086,9.408 1.822,9.516 1.479,9.516"
             inkscape:connector-curvature="0"
             id="path46"
             style="fill:#363738;fill-opacity:1;fill-rule:nonzero;stroke:none" /></g><g
           transform="translate(294.3496,17.1914)"
           id="g48"><path
             d="m 0,0 c 0.072,0.764 0.293,1.338 0.654,1.725 0.361,0.388 0.825,0.58 1.383,0.58 0.59,0 1.065,-0.19 1.422,-0.575 C 3.823,1.35 4.032,0.771 4.085,0 L 0,0 z m 5.777,-1.027 c 0.325,0.17 0.491,0.539 0.491,1.105 0,0.609 -0.159,1.211 -0.473,1.801 C 5.479,2.467 5.008,2.945 4.379,3.318 3.748,3.691 2.992,3.875 2.113,3.875 1.437,3.875 0.817,3.766 0.264,3.549 -0.294,3.332 -0.762,3.02 -1.141,2.613 -1.521,2.205 -1.811,1.715 -2.008,1.146 c -0.198,-0.57 -0.299,-1.189 -0.299,-1.851 0,-1.418 0.407,-2.535 1.208,-3.361 0.802,-0.827 1.927,-1.243 3.376,-1.243 0.633,0 1.194,0.086 1.68,0.25 0.486,0.166 0.893,0.375 1.216,0.622 0.32,0.251 0.559,0.515 0.722,0.787 0.159,0.271 0.238,0.511 0.238,0.714 0,0.231 -0.072,0.411 -0.216,0.536 -0.142,0.125 -0.33,0.191 -0.56,0.191 -0.214,0 -0.38,-0.051 -0.497,-0.148 C 4.58,-2.621 4.352,-2.83 4.178,-2.986 3.999,-3.139 3.809,-3.281 3.599,-3.42 3.389,-3.555 3.174,-3.654 2.951,-3.719 2.729,-3.779 2.479,-3.813 2.212,-3.813 c -0.402,0 -0.769,0.1 -1.101,0.301 C 0.775,-3.316 0.509,-3.02 0.309,-2.631 0.106,-2.24 0.004,-1.789 0,-1.275 l 4.409,0 c 0.588,0 1.046,0.082 1.368,0.248"
             inkscape:connector-curvature="0"
             id="path50"
             style="fill:#363738;fill-opacity:1;fill-rule:nonzero;stroke:none" /></g><g
           transform="translate(308.4238,16.7734)"
           id="g52"><path
             d="m 0,0 c -0.444,0.236 -1.018,0.439 -1.715,0.611 -0.59,0.143 -1.051,0.266 -1.387,0.364 -0.336,0.099 -0.603,0.224 -0.803,0.375 -0.197,0.152 -0.296,0.345 -0.296,0.582 0,0.257 0.136,0.474 0.405,0.648 0.271,0.174 0.608,0.262 1.015,0.262 0.397,0 0.711,-0.067 0.942,-0.201 0.234,-0.131 0.431,-0.307 0.603,-0.53 0.209,-0.261 0.395,-0.457 0.557,-0.593 0.161,-0.129 0.359,-0.198 0.592,-0.198 0.317,0 0.566,0.084 0.738,0.248 0.174,0.166 0.26,0.379 0.26,0.637 0,0.236 -0.083,0.477 -0.243,0.727 -0.161,0.25 -0.398,0.472 -0.71,0.675 -0.312,0.204 -0.7,0.366 -1.165,0.491 -0.466,0.119 -0.988,0.177 -1.574,0.177 -0.742,0 -1.375,-0.115 -1.904,-0.359 C -5.207,3.678 -5.607,3.357 -5.877,2.957 -6.147,2.555 -6.28,2.125 -6.28,1.678 c 0,-0.508 0.145,-0.932 0.436,-1.283 0.293,-0.344 0.681,-0.625 1.17,-0.836 0.487,-0.211 1.118,-0.414 1.893,-0.606 0.691,-0.166 1.181,-0.34 1.483,-0.521 0.3,-0.184 0.452,-0.471 0.452,-0.87 0,-0.255 -0.148,-0.488 -0.437,-0.685 -0.285,-0.203 -0.658,-0.305 -1.112,-0.305 -0.553,0 -0.994,0.102 -1.314,0.301 -0.32,0.197 -0.6,0.494 -0.828,0.898 -0.115,0.209 -0.238,0.372 -0.366,0.489 -0.126,0.113 -0.306,0.172 -0.544,0.172 -0.27,0 -0.493,-0.088 -0.67,-0.266 -0.175,-0.176 -0.263,-0.389 -0.263,-0.635 0,-0.373 0.14,-0.748 0.411,-1.119 0.276,-0.371 0.701,-0.682 1.281,-0.926 0.577,-0.25 1.272,-0.377 2.082,-0.377 0.847,0 1.569,0.12 2.162,0.344 0.589,0.231 1.034,0.565 1.339,1.01 0.302,0.443 0.455,0.976 0.455,1.598 0,0.41 -0.116,0.779 -0.344,1.103 C 0.777,-0.516 0.442,-0.238 0,0"
             inkscape:connector-curvature="0"
             id="path54"
             style="fill:#363738;fill-opacity:1;fill-rule:nonzero;stroke:none" /></g><g
           transform="translate(312.7949,21.0488)"
           id="g56"><path
             d="m 0,0 c -0.328,0 -0.602,-0.109 -0.805,-0.338 -0.208,-0.223 -0.31,-0.558 -0.31,-1.006 l 0,-6.451 c 0,-0.439 0.102,-0.775 0.31,-1.014 0.203,-0.236 0.477,-0.357 0.805,-0.357 0.329,0 0.602,0.119 0.815,0.35 0.216,0.23 0.325,0.572 0.325,1.021 l 0,6.518 c 0,0.398 -0.109,0.716 -0.325,0.939 C 0.602,-0.109 0.329,0 0,0"
             inkscape:connector-curvature="0"
             id="path58"
             style="fill:#363738;fill-opacity:1;fill-rule:nonzero;stroke:none" /></g><g
           transform="translate(312.8193,24.3047)"
           id="g60"><path
             d="m 0,0 c -0.302,0 -0.568,-0.104 -0.796,-0.312 -0.23,-0.204 -0.344,-0.465 -0.344,-0.786 0,-0.355 0.114,-0.627 0.334,-0.818 0.224,-0.193 0.491,-0.291 0.806,-0.291 0.302,0 0.563,0.102 0.784,0.295 0.222,0.197 0.331,0.467 0.331,0.814 0,0.358 -0.114,0.629 -0.339,0.819 C 0.548,-0.096 0.29,0 0,0"
             inkscape:connector-curvature="0"
             id="path62"
             style="fill:#363738;fill-opacity:1;fill-rule:nonzero;stroke:none" /></g><g
           transform="translate(322.0439,14.9785)"
           id="g64"><path
             d="m 0,0 c -0.209,-0.404 -0.481,-0.711 -0.815,-0.91 -0.333,-0.199 -0.686,-0.301 -1.061,-0.301 -0.634,0 -1.148,0.234 -1.549,0.701 -0.4,0.469 -0.598,1.16 -0.598,2.074 0,0.905 0.194,1.598 0.583,2.088 0.388,0.493 0.903,0.737 1.548,0.737 0.659,0 1.194,-0.258 1.598,-0.766 C 0.108,3.109 0.313,2.393 0.313,1.475 0.313,0.895 0.207,0.404 0,0 M 1.427,6.07 C 1.122,6.07 0.876,5.967 0.686,5.748 0.493,5.535 0.396,5.232 0.396,4.84 l 0,-0.301 c -0.404,0.522 -0.837,0.904 -1.305,1.148 -0.469,0.247 -1.023,0.37 -1.657,0.37 -0.538,0 -1.028,-0.096 -1.472,-0.287 C -4.487,5.58 -4.879,5.301 -5.221,4.926 -5.562,4.553 -5.824,4.092 -6.009,3.547 -6.193,3 -6.284,2.391 -6.284,1.715 c 0,-0.91 0.15,-1.711 0.455,-2.404 0.299,-0.696 0.734,-1.233 1.301,-1.62 0.562,-0.384 1.222,-0.578 1.974,-0.578 0.63,0 1.168,0.125 1.622,0.381 0.456,0.252 0.859,0.621 1.204,1.106 C 0.26,-2.141 0.243,-2.676 0.223,-3.006 0.2,-3.342 0.125,-3.65 -0.004,-3.945 c -0.132,-0.291 -0.356,-0.516 -0.68,-0.68 -0.319,-0.164 -0.774,-0.244 -1.356,-0.244 -0.286,0 -0.542,0.027 -0.761,0.08 -0.219,0.051 -0.41,0.129 -0.563,0.238 -0.159,0.11 -0.303,0.239 -0.43,0.391 -0.132,0.148 -0.257,0.299 -0.377,0.447 -0.248,0.293 -0.538,0.44 -0.865,0.44 -0.267,0 -0.494,-0.086 -0.68,-0.264 -0.186,-0.172 -0.28,-0.397 -0.28,-0.672 0,-0.363 0.167,-0.715 0.496,-1.062 0.329,-0.34 0.8,-0.622 1.412,-0.84 0.61,-0.217 1.307,-0.326 2.082,-0.326 0.847,0 1.556,0.085 2.124,0.253 0.57,0.172 1.033,0.434 1.383,0.788 0.353,0.353 0.609,0.796 0.767,1.337 0.161,0.541 0.241,1.184 0.241,1.932 l 0,6.549 C 2.509,4.957 2.438,5.365 2.296,5.645 2.148,5.928 1.86,6.07 1.427,6.07"
             inkscape:connector-curvature="0"
             id="path66"
             style="fill:#363738;fill-opacity:1;fill-rule:nonzero;stroke:none" /></g><g
           transform="translate(334.4443,19.5645)"
           id="g68"><path
             d="m 0,0 c -0.229,0.475 -0.581,0.84 -1.046,1.1 -0.471,0.257 -1,0.384 -1.596,0.384 -0.611,0 -1.153,-0.121 -1.622,-0.365 C -4.737,0.873 -5.168,0.49 -5.563,-0.033 l 0,0.273 c 0,0.272 -0.049,0.496 -0.147,0.686 -0.095,0.185 -0.226,0.326 -0.383,0.42 -0.16,0.091 -0.34,0.138 -0.535,0.138 -0.328,0 -0.584,-0.103 -0.768,-0.314 C -7.584,0.957 -7.679,0.637 -7.679,0.207 l 0,-6.518 c 0,-0.439 0.104,-0.775 0.313,-1.013 0.211,-0.237 0.478,-0.358 0.803,-0.358 0.334,0 0.609,0.12 0.821,0.344 0.21,0.231 0.317,0.572 0.317,1.027 l 0,2.827 c 0,0.918 0.056,1.547 0.164,1.882 0.155,0.42 0.399,0.75 0.727,0.989 0.332,0.238 0.697,0.357 1.099,0.357 0.617,0 1.03,-0.199 1.236,-0.588 0.206,-0.396 0.307,-0.965 0.307,-1.709 l 0,-3.758 c 0,-0.439 0.106,-0.775 0.313,-1.013 0.213,-0.237 0.483,-0.358 0.818,-0.358 0.332,0 0.598,0.12 0.806,0.35 0.206,0.23 0.309,0.572 0.309,1.021 l 0,4.198 c 0,0.494 -0.021,0.902 -0.064,1.222 C 0.245,-0.572 0.147,-0.277 0,0"
             inkscape:connector-curvature="0"
             id="path70"
             style="fill:#363738;fill-opacity:1;fill-rule:nonzero;stroke:none" /></g><g
           transform="translate(338.9277,17.1914)"
           id="g72"><path
             d="m 0,0 c 0.078,0.764 0.297,1.338 0.655,1.725 0.361,0.388 0.824,0.58 1.387,0.58 0.587,0 1.062,-0.19 1.423,-0.575 C 3.824,1.35 4.033,0.771 4.088,0 L 0,0 z m 5.781,-1.027 c 0.323,0.17 0.485,0.539 0.485,1.105 0,0.609 -0.153,1.211 -0.469,1.801 C 5.482,2.467 5.012,2.945 4.38,3.318 3.748,3.691 2.994,3.875 2.116,3.875 1.437,3.875 0.82,3.766 0.266,3.549 -0.292,3.332 -0.76,3.02 -1.139,2.613 -1.519,2.205 -1.81,1.715 -2.007,1.146 c -0.194,-0.57 -0.299,-1.189 -0.299,-1.851 0,-1.418 0.406,-2.535 1.208,-3.361 0.805,-0.827 1.926,-1.243 3.377,-1.243 0.631,0 1.194,0.086 1.682,0.25 0.486,0.166 0.891,0.375 1.211,0.622 0.323,0.251 0.562,0.515 0.724,0.787 0.16,0.271 0.239,0.511 0.239,0.714 0,0.231 -0.073,0.411 -0.215,0.536 -0.145,0.125 -0.328,0.191 -0.561,0.191 -0.213,0 -0.38,-0.051 -0.497,-0.148 C 4.582,-2.621 4.354,-2.83 4.179,-2.986 4.002,-3.139 3.811,-3.281 3.601,-3.42 3.391,-3.555 3.174,-3.654 2.952,-3.719 2.729,-3.779 2.483,-3.813 2.213,-3.813 c -0.402,0 -0.768,0.1 -1.102,0.301 C 0.777,-3.316 0.509,-3.02 0.309,-2.631 0.106,-2.24 0.006,-1.789 0,-1.275 l 4.409,0 c 0.59,0 1.046,0.082 1.372,0.248"
             inkscape:connector-curvature="0"
             id="path74"
             style="fill:#363738;fill-opacity:1;fill-rule:nonzero;stroke:none" /></g><g
           transform="translate(352.8535,14.8867)"
           id="g76"><path
             d="m 0,0 c -0.195,-0.428 -0.458,-0.74 -0.781,-0.947 -0.331,-0.209 -0.693,-0.313 -1.09,-0.313 -0.389,0 -0.751,0.11 -1.08,0.328 -0.332,0.217 -0.59,0.541 -0.779,0.969 -0.192,0.428 -0.287,0.949 -0.287,1.563 0,0.576 0.089,1.086 0.269,1.517 0.178,0.44 0.43,0.778 0.754,1.012 0.326,0.236 0.693,0.351 1.109,0.351 0.395,0 0.759,-0.115 1.092,-0.345 C -0.458,3.908 -0.195,3.578 0,3.146 0.195,2.715 0.297,2.199 0.297,1.6 0.297,0.961 0.195,0.426 0,0 M 1.482,9.516 C 1.138,9.516 0.879,9.396 0.695,9.162 0.51,8.926 0.416,8.574 0.416,8.113 l 0,-3.328 C -0.008,5.246 -0.44,5.59 -0.889,5.812 -1.334,6.035 -1.877,6.148 -2.528,6.148 -3.653,6.148 -4.561,5.754 -5.247,4.967 -5.936,4.178 -6.279,3.08 -6.279,1.674 c 0,-0.67 0.088,-1.287 0.26,-1.86 0.171,-0.572 0.431,-1.074 0.762,-1.492 0.337,-0.426 0.735,-0.752 1.193,-0.982 0.46,-0.225 0.96,-0.344 1.5,-0.344 0.405,0 0.783,0.059 1.127,0.172 0.343,0.111 0.664,0.275 0.957,0.496 0.296,0.217 0.595,0.5 0.896,0.844 l 0,-0.221 c 0,-0.412 0.102,-0.732 0.303,-0.957 0.201,-0.223 0.456,-0.334 0.763,-0.334 0.313,0 0.568,0.111 0.768,0.326 0.197,0.213 0.299,0.535 0.299,0.965 l 0,9.94 C 2.549,8.654 2.458,8.971 2.273,9.191 2.085,9.408 1.824,9.516 1.482,9.516"
             inkscape:connector-curvature="0"
             id="path78"
             style="fill:#363738;fill-opacity:1;fill-rule:nonzero;stroke:none" /></g><g
           transform="translate(367.7764,14.3672)"
           id="g80"><path
             d="m 0,0 c -0.413,-0.492 -0.901,-0.74 -1.468,-0.74 -0.666,0 -1.202,0.242 -1.613,0.722 -0.412,0.483 -0.617,1.17 -0.617,2.069 0,0.609 0.096,1.138 0.291,1.58 0.191,0.445 0.456,0.783 0.791,1.017 C -2.278,4.885 -1.898,5 -1.468,5 -1.048,5 -0.683,4.885 -0.369,4.648 -0.056,4.414 0.185,4.084 0.356,3.652 0.528,3.223 0.612,2.713 0.612,2.119 0.612,1.199 0.409,0.492 0,0 M 1.097,6.135 C 0.532,6.49 -0.124,6.668 -0.873,6.668 -1.521,6.668 -2.066,6.553 -2.509,6.316 -2.948,6.082 -3.38,5.748 -3.804,5.305 l 0,3.441 c 0,0.416 -0.093,0.734 -0.281,0.957 -0.187,0.221 -0.453,0.332 -0.801,0.332 -0.331,0 -0.586,-0.117 -0.77,-0.349 C -5.843,9.453 -5.935,9.105 -5.935,8.648 l 0,-9.841 c 0,-0.428 0.096,-0.743 0.284,-0.965 0.191,-0.215 0.447,-0.326 0.765,-0.326 0.315,0 0.573,0.111 0.778,0.326 0.203,0.222 0.304,0.537 0.304,0.965 l 0,0.22 c 0.249,-0.283 0.446,-0.502 0.598,-0.642 0.151,-0.141 0.336,-0.281 0.55,-0.416 0.214,-0.135 0.474,-0.244 0.781,-0.326 0.305,-0.084 0.63,-0.127 0.977,-0.127 0.567,0 1.085,0.119 1.556,0.343 0.471,0.231 0.872,0.555 1.202,0.973 0.328,0.416 0.582,0.912 0.757,1.48 0.173,0.571 0.258,1.196 0.258,1.881 0,0.922 -0.154,1.725 -0.466,2.399 C 2.098,5.266 1.661,5.781 1.097,6.135"
             inkscape:connector-curvature="0"
             id="path82"
             style="fill:#363738;fill-opacity:1;fill-rule:nonzero;stroke:none" /></g><g
           transform="translate(379.2773,20.9141)"
           id="g84"><path
             d="M 0,0 C -0.158,0.092 -0.32,0.135 -0.492,0.135 -0.727,0.135 -0.911,0.096 -1.041,0.014 -1.17,-0.068 -1.293,-0.23 -1.41,-0.465 -1.523,-0.703 -1.654,-1.029 -1.796,-1.449 l -1.808,-5.16 -1.908,5.548 c -0.127,0.389 -0.274,0.678 -0.435,0.887 -0.167,0.207 -0.412,0.309 -0.738,0.309 -0.186,0 -0.366,-0.049 -0.542,-0.147 -0.171,-0.099 -0.308,-0.228 -0.408,-0.394 -0.097,-0.164 -0.149,-0.346 -0.149,-0.539 0,-0.182 0.085,-0.473 0.257,-0.875 l 2.773,-6.987 -0.203,-0.504 c -0.158,-0.365 -0.292,-0.648 -0.411,-0.835 -0.116,-0.19 -0.253,-0.325 -0.4,-0.401 -0.151,-0.078 -0.352,-0.115 -0.61,-0.115 -0.106,0 -0.229,0.016 -0.372,0.049 -0.116,0.031 -0.233,0.05 -0.357,0.05 -0.307,0 -0.541,-0.072 -0.696,-0.212 -0.159,-0.141 -0.234,-0.34 -0.234,-0.6 0,-0.379 0.166,-0.639 0.494,-0.783 0.33,-0.145 0.825,-0.215 1.484,-0.215 0.675,0 1.217,0.103 1.615,0.31 0.401,0.209 0.721,0.504 0.962,0.889 0.246,0.385 0.489,0.914 0.746,1.596 l 2.937,7.689 c 0.072,0.202 0.133,0.397 0.184,0.59 0.05,0.192 0.084,0.342 0.105,0.445 0,0.17 -0.042,0.331 -0.129,0.487 C 0.275,-0.213 0.156,-0.092 0,0"
             inkscape:connector-curvature="0"
             id="path86"
             style="fill:#363738;fill-opacity:1;fill-rule:nonzero;stroke:none" /></g><g
           transform="translate(419.502,24.4023)"
           id="g88"><path
             d="m 0,0 c -0.743,0 -1.329,-0.09 -1.755,-0.283 -0.427,-0.19 -0.732,-0.492 -0.908,-0.91 -0.178,-0.414 -0.269,-0.975 -0.269,-1.68 l 0,-0.678 -0.536,0 c -0.755,0 -1.132,-0.271 -1.132,-0.806 0,-0.245 0.089,-0.442 0.274,-0.59 0.18,-0.155 0.437,-0.229 0.776,-0.229 l 0.618,0 0,-5.972 c 0,-0.444 0.107,-0.784 0.321,-1.016 0.211,-0.236 0.474,-0.356 0.792,-0.356 0.338,0 0.612,0.12 0.824,0.356 0.21,0.232 0.318,0.572 0.318,1.016 l 0,5.972 0.554,0 c 0.401,0 0.716,0.049 0.946,0.147 0.225,0.101 0.34,0.334 0.34,0.705 0,0.513 -0.427,0.773 -1.286,0.773 l -0.554,0 0,0.539 c 0,0.444 0.058,0.787 0.173,1.028 0.117,0.24 0.378,0.357 0.784,0.357 0.151,0 0.331,-0.014 0.544,-0.047 0.214,-0.033 0.366,-0.051 0.453,-0.051 0.189,0 0.351,0.075 0.491,0.223 0.137,0.148 0.207,0.326 0.207,0.537 C 1.975,-0.32 1.315,0 0,0"
             inkscape:connector-curvature="0"
             id="path90"
             style="fill:#363738;fill-opacity:1;fill-rule:nonzero;stroke:none" /></g><g
           transform="translate(427.3545,20.6973)"
           id="g92"><path
             d="M 0,0 C -0.447,0.236 -0.906,0.352 -1.379,0.352 -1.853,0.352 -2.23,0.236 -2.513,0 -2.797,-0.238 -3.073,-0.59 -3.345,-1.051 -3.363,-0.59 -3.453,-0.238 -3.616,0 c -0.165,0.236 -0.433,0.352 -0.81,0.352 -0.731,0 -1.098,-0.504 -1.098,-1.518 l 0,-6.277 c 0,-0.45 0.104,-0.791 0.315,-1.022 0.209,-0.23 0.474,-0.349 0.799,-0.349 0.331,0 0.603,0.119 0.82,0.343 0.214,0.231 0.321,0.573 0.321,1.028 l 0,1.886 c 0,0.674 0.02,1.248 0.066,1.719 0.044,0.473 0.125,0.877 0.239,1.219 0.113,0.342 0.279,0.599 0.486,0.773 0.208,0.17 0.478,0.258 0.811,0.258 0.24,0 0.521,-0.051 0.838,-0.15 0.314,-0.102 0.518,-0.155 0.6,-0.155 0.219,0 0.42,0.092 0.61,0.268 0.194,0.18 0.285,0.406 0.285,0.682 0,0.39 -0.22,0.705 -0.666,0.943"
             inkscape:connector-curvature="0"
             id="path94"
             style="fill:#363738;fill-opacity:1;fill-rule:nonzero;stroke:none" /></g><g
           transform="translate(430.7168,17.1914)"
           id="g96"><path
             d="m 0,0 c 0.078,0.764 0.295,1.338 0.656,1.725 0.359,0.388 0.821,0.58 1.384,0.58 0.588,0 1.063,-0.19 1.422,-0.575 C 3.825,1.35 4.028,0.771 4.086,0 L 0,0 z m 5.779,-1.027 c 0.326,0.17 0.487,0.539 0.487,1.105 0,0.609 -0.16,1.211 -0.472,1.801 C 5.482,2.467 5.01,2.945 4.379,3.318 3.748,3.691 2.991,3.875 2.112,3.875 1.437,3.875 0.821,3.766 0.264,3.549 -0.293,3.332 -0.761,3.02 -1.143,2.613 -1.521,2.205 -1.811,1.715 -2.008,1.146 c -0.196,-0.57 -0.3,-1.189 -0.3,-1.851 0,-1.418 0.406,-2.535 1.207,-3.361 0.804,-0.827 1.928,-1.243 3.376,-1.243 0.634,0 1.198,0.086 1.68,0.25 0.49,0.166 0.896,0.375 1.218,0.622 0.319,0.251 0.558,0.515 0.719,0.787 0.162,0.271 0.24,0.511 0.24,0.714 0,0.231 -0.07,0.411 -0.213,0.536 -0.143,0.125 -0.332,0.191 -0.559,0.191 -0.214,0 -0.383,-0.051 -0.5,-0.148 C 4.584,-2.621 4.352,-2.83 4.177,-2.986 4.002,-3.139 3.809,-3.281 3.596,-3.42 3.389,-3.555 3.174,-3.654 2.95,-3.719 2.728,-3.779 2.48,-3.813 2.21,-3.813 c -0.398,0 -0.766,0.1 -1.102,0.301 -0.335,0.196 -0.6,0.492 -0.801,0.881 C 0.108,-2.24 0.003,-1.789 0,-1.275 l 4.407,0 c 0.59,0 1.045,0.082 1.372,0.248"
             inkscape:connector-curvature="0"
             id="path98"
             style="fill:#363738;fill-opacity:1;fill-rule:nonzero;stroke:none" /></g><g
           transform="translate(440.7646,17.1914)"
           id="g100"><path
             d="m 0,0 c 0.074,0.764 0.299,1.338 0.654,1.725 0.365,0.388 0.823,0.58 1.386,0.58 0.587,0 1.063,-0.19 1.423,-0.575 C 3.823,1.35 4.032,0.771 4.086,0 L 0,0 z m 5.779,-1.027 c 0.325,0.17 0.487,0.539 0.487,1.105 0,0.609 -0.157,1.211 -0.47,1.801 C 5.482,2.467 5.01,2.945 4.381,3.318 3.749,3.691 2.995,3.875 2.112,3.875 1.437,3.875 0.819,3.766 0.263,3.549 -0.294,3.332 -0.76,3.02 -1.139,2.613 -1.52,2.205 -1.808,1.715 -2.009,1.146 c -0.197,-0.57 -0.294,-1.189 -0.294,-1.851 0,-1.418 0.402,-2.535 1.203,-3.361 0.805,-0.827 1.93,-1.243 3.379,-1.243 0.632,0 1.192,0.086 1.678,0.25 0.489,0.166 0.893,0.375 1.217,0.622 0.319,0.251 0.561,0.515 0.723,0.787 0.156,0.271 0.235,0.511 0.235,0.714 0,0.231 -0.07,0.411 -0.213,0.536 -0.144,0.125 -0.329,0.191 -0.56,0.191 -0.217,0 -0.38,-0.051 -0.495,-0.148 C 4.582,-2.621 4.354,-2.83 4.178,-2.986 4.003,-3.139 3.808,-3.281 3.601,-3.42 3.39,-3.555 3.174,-3.654 2.951,-3.719 2.728,-3.779 2.48,-3.813 2.212,-3.813 c -0.402,0 -0.769,0.1 -1.103,0.301 -0.332,0.196 -0.6,0.492 -0.8,0.881 C 0.108,-2.24 0.006,-1.789 0,-1.275 l 4.409,0 c 0.592,0 1.046,0.082 1.37,0.248"
             inkscape:connector-curvature="0"
             id="path102"
             style="fill:#363738;fill-opacity:1;fill-rule:nonzero;stroke:none" /></g><g
           transform="translate(454.917,14.9316)"
           id="g104"><path
             d="m 0,0 c -0.195,-0.434 -0.448,-0.76 -0.77,-0.977 -0.316,-0.218 -0.665,-0.328 -1.038,-0.328 -0.629,0 -1.151,0.248 -1.579,0.748 -0.424,0.498 -0.634,1.198 -0.634,2.092 0,0.955 0.211,1.674 0.64,2.164 0.425,0.492 0.953,0.737 1.573,0.737 0.393,0 0.746,-0.116 1.069,-0.346 C -0.417,3.863 -0.164,3.537 0.016,3.109 0.198,2.684 0.288,2.172 0.288,1.578 0.288,0.959 0.19,0.434 0,0 m 0.661,5.564 c -0.583,0.362 -1.223,0.54 -1.917,0.54 -0.578,0 -1.093,-0.124 -1.552,-0.37 C -3.262,5.49 -3.702,5.107 -4.128,4.586 l 0,0.269 c 0,0.407 -0.101,0.721 -0.302,0.94 C -4.631,6.014 -4.892,6.117 -5.211,6.117 -5.537,6.117 -5.79,6.014 -5.98,5.803 -6.162,5.59 -6.257,5.27 -6.257,4.84 l 0,-9.727 c 0,-0.488 0.068,-0.863 0.205,-1.117 0.138,-0.258 0.418,-0.387 0.841,-0.387 0.721,0 1.083,0.493 1.083,1.485 l 0,3.39 c 0.395,-0.505 0.814,-0.884 1.249,-1.14 0.441,-0.26 0.981,-0.393 1.623,-0.393 0.535,0 1.035,0.108 1.498,0.322 0.467,0.207 0.867,0.512 1.21,0.907 0.343,0.392 0.611,0.881 0.807,1.463 0.195,0.582 0.292,1.216 0.292,1.912 0,0.943 -0.168,1.754 -0.505,2.443 -0.341,0.686 -0.8,1.207 -1.385,1.566"
             inkscape:connector-curvature="0"
             id="path106"
             style="fill:#363738;fill-opacity:1;fill-rule:nonzero;stroke:none" /></g><g
           transform="translate(460.3906,21.0488)"
           id="g108"><path
             d="m 0,0 c -0.33,0 -0.597,-0.109 -0.805,-0.338 -0.207,-0.223 -0.308,-0.558 -0.308,-1.006 l 0,-6.451 c 0,-0.439 0.101,-0.775 0.308,-1.014 0.208,-0.236 0.475,-0.357 0.805,-0.357 0.331,0 0.601,0.119 0.817,0.35 0.216,0.23 0.323,0.572 0.323,1.021 l 0,6.518 c 0,0.398 -0.107,0.716 -0.323,0.939 C 0.601,-0.109 0.331,0 0,0"
             inkscape:connector-curvature="0"
             id="path110"
             style="fill:#363738;fill-opacity:1;fill-rule:nonzero;stroke:none" /></g><g
           transform="translate(460.417,24.3047)"
           id="g112"><path
             d="m 0,0 c -0.302,0 -0.571,-0.104 -0.798,-0.312 -0.227,-0.204 -0.342,-0.465 -0.342,-0.786 0,-0.355 0.114,-0.627 0.335,-0.818 0.219,-0.193 0.491,-0.291 0.805,-0.291 0.303,0 0.565,0.102 0.785,0.295 0.218,0.197 0.328,0.467 0.328,0.814 C 1.113,-0.74 1,-0.469 0.775,-0.279 0.548,-0.096 0.292,0 0,0"
             inkscape:connector-curvature="0"
             id="path114"
             style="fill:#363738;fill-opacity:1;fill-rule:nonzero;stroke:none" /></g><g
           transform="translate(471.2979,14.0566)"
           id="g116"><path
             d="m 0,0 -2.311,3.635 1.197,1.097 c 0.612,0.549 0.919,0.991 0.919,1.319 0,0.271 -0.096,0.494 -0.283,0.672 -0.188,0.181 -0.421,0.269 -0.702,0.269 -0.235,0 -0.436,-0.058 -0.605,-0.178 C -1.947,6.689 -2.186,6.467 -2.5,6.133 l -2.534,-2.656 0,5.466 c 0,0.461 -0.105,0.813 -0.307,1.049 -0.204,0.235 -0.477,0.354 -0.823,0.354 -0.36,0 -0.636,-0.131 -0.83,-0.393 -0.193,-0.26 -0.287,-0.642 -0.287,-1.142 l 0,-9.614 c 0,-0.449 0.099,-0.791 0.297,-1.021 0.199,-0.231 0.469,-0.35 0.82,-0.35 0.294,0 0.558,0.119 0.787,0.356 0.229,0.232 0.343,0.566 0.343,1.002 l 0,1.793 1.221,1.154 1.989,-3.27 c 0.253,-0.392 0.454,-0.658 0.603,-0.81 0.149,-0.149 0.363,-0.225 0.637,-0.225 0.316,0 0.576,0.104 0.769,0.313 0.197,0.209 0.296,0.486 0.296,0.845 0,0.127 -0.039,0.262 -0.113,0.401 C 0.295,-0.473 0.171,-0.268 0,0"
             inkscape:connector-curvature="0"
             id="path118"
             style="fill:#363738;fill-opacity:1;fill-rule:nonzero;stroke:none" /></g><g
           transform="translate(475.0244,14.3711)"
           id="g120"><path
             d="m 0,0 c -0.345,0 -0.64,-0.121 -0.878,-0.365 -0.235,-0.239 -0.353,-0.53 -0.353,-0.865 0,-0.397 0.125,-0.704 0.372,-0.924 0.248,-0.223 0.544,-0.334 0.883,-0.334 0.329,0 0.615,0.111 0.863,0.334 0.244,0.224 0.367,0.529 0.367,0.924 0,0.343 -0.123,0.63 -0.367,0.873 C 0.639,-0.119 0.344,0 0,0"
             inkscape:connector-curvature="0"
             id="path122"
             style="fill:#363738;fill-opacity:1;fill-rule:nonzero;stroke:none" /></g><g
           transform="translate(485.9717,15.6562)"
           id="g124"><path
             d="m 0,0 c -0.231,0 -0.425,-0.068 -0.586,-0.213 -0.16,-0.139 -0.308,-0.342 -0.444,-0.594 -0.251,-0.431 -0.534,-0.748 -0.854,-0.959 -0.325,-0.209 -0.713,-0.312 -1.163,-0.312 -0.333,0 -0.645,0.068 -0.926,0.193 -0.277,0.131 -0.522,0.319 -0.715,0.571 -0.199,0.25 -0.351,0.552 -0.458,0.908 -0.104,0.353 -0.155,0.746 -0.155,1.168 0,0.9 0.204,1.615 0.613,2.134 0.406,0.52 0.942,0.782 1.608,0.782 0.462,0 0.845,-0.108 1.145,-0.315 0.301,-0.211 0.587,-0.523 0.863,-0.941 0.153,-0.215 0.293,-0.371 0.416,-0.463 0.124,-0.1 0.279,-0.148 0.467,-0.148 0.286,0 0.53,0.093 0.727,0.281 0.204,0.187 0.304,0.416 0.304,0.683 0,0.266 -0.09,0.551 -0.266,0.856 -0.18,0.305 -0.44,0.594 -0.777,0.865 -0.339,0.268 -0.754,0.488 -1.24,0.66 -0.488,0.17 -1.022,0.254 -1.606,0.254 -0.94,0 -1.75,-0.193 -2.424,-0.582 C -6.148,4.443 -6.67,3.893 -7.027,3.184 -7.384,2.473 -7.561,1.654 -7.561,0.73 c 0,-1.365 0.391,-2.455 1.173,-3.267 0.78,-0.813 1.867,-1.215 3.257,-1.215 0.658,0 1.247,0.086 1.771,0.26 0.519,0.178 0.955,0.41 1.301,0.699 0.34,0.291 0.597,0.596 0.764,0.912 0.169,0.32 0.255,0.621 0.255,0.902 0,0.237 -0.092,0.456 -0.276,0.667 C 0.505,-0.102 0.277,0 0,0"
             inkscape:connector-curvature="0"
             id="path126"
             style="fill:#363738;fill-opacity:1;fill-rule:nonzero;stroke:none" /></g><g
           transform="translate(494.4648,14.334)"
           id="g128"><path
             d="m 0,0 c -0.406,-0.514 -0.948,-0.771 -1.633,-0.771 -0.45,0 -0.841,0.117 -1.176,0.349 -0.332,0.235 -0.589,0.572 -0.768,1.012 -0.178,0.441 -0.268,0.953 -0.268,1.543 0,0.596 0.09,1.117 0.272,1.562 0.181,0.446 0.442,0.78 0.775,1.012 0.34,0.229 0.727,0.342 1.165,0.342 C -0.948,5.049 -0.406,4.793 0,4.281 0.402,3.768 0.604,3.053 0.604,2.133 0.604,1.227 0.402,0.514 0,0 M 1.655,5.445 C 1.261,5.854 0.781,6.166 0.226,6.387 -0.33,6.607 -0.948,6.715 -1.633,6.715 -2.303,6.715 -2.916,6.611 -3.473,6.393 -4.029,6.174 -4.504,5.863 -4.893,5.461 -5.283,5.059 -5.585,4.578 -5.791,4.008 -6.004,3.439 -6.105,2.814 -6.105,2.133 c 0,-0.676 0.101,-1.295 0.309,-1.856 0.206,-0.554 0.509,-1.039 0.908,-1.449 0.399,-0.416 0.872,-0.724 1.415,-0.945 0.545,-0.223 1.16,-0.334 1.84,-0.334 0.69,0 1.307,0.111 1.859,0.326 0.551,0.223 1.024,0.535 1.42,0.939 0.395,0.409 0.701,0.893 0.911,1.463 0.207,0.567 0.31,1.186 0.31,1.856 0,0.68 -0.103,1.297 -0.306,1.857 C 2.353,4.551 2.05,5.037 1.655,5.445"
             inkscape:connector-curvature="0"
             id="path130"
             style="fill:#363738;fill-opacity:1;fill-rule:nonzero;stroke:none" /></g><g
           transform="translate(511.5928,19.6289)"
           id="g132"><path
             d="M 0,0 C -0.223,0.451 -0.552,0.799 -0.996,1.045 -1.444,1.285 -1.975,1.406 -2.592,1.406 -3.12,1.406 -3.604,1.293 -4.036,1.07 -4.474,0.848 -4.878,0.504 -5.258,0.043 -5.521,0.5 -5.858,0.84 -6.268,1.068 -6.671,1.293 -7.159,1.406 -7.728,1.406 -8.272,1.406 -8.766,1.293 -9.215,1.074 -9.66,0.855 -10.077,0.508 -10.466,0.043 l 0,0.213 c 0,0.365 -0.105,0.646 -0.315,0.855 -0.203,0.207 -0.461,0.309 -0.771,0.309 -0.316,0 -0.577,-0.108 -0.771,-0.328 -0.198,-0.221 -0.294,-0.543 -0.294,-0.967 l 0,-6.447 c 0,-0.471 0.111,-0.823 0.326,-1.061 0.219,-0.242 0.5,-0.363 0.839,-0.363 0.348,0 0.625,0.121 0.838,0.363 0.212,0.238 0.319,0.59 0.319,1.061 l 0,3.047 c 0,0.943 0.115,1.671 0.351,2.179 0.231,0.504 0.717,0.758 1.457,0.758 0.368,0 0.64,-0.099 0.808,-0.303 0.169,-0.199 0.277,-0.455 0.315,-0.769 0.038,-0.317 0.059,-0.752 0.059,-1.32 l 0,-3.592 c 0,-0.475 0.105,-0.828 0.318,-1.067 0.21,-0.236 0.488,-0.357 0.83,-0.357 0.35,0 0.636,0.121 0.85,0.357 0.213,0.239 0.321,0.592 0.321,1.067 l 0,2.996 c 0,0.967 0.084,1.635 0.246,2.014 0.15,0.298 0.36,0.535 0.624,0.708 0.268,0.18 0.551,0.266 0.849,0.266 0.367,0 0.644,-0.098 0.823,-0.297 0.179,-0.197 0.293,-0.443 0.337,-0.732 0.038,-0.295 0.06,-0.684 0.06,-1.166 l 0,-3.789 c 0,-0.471 0.11,-0.823 0.326,-1.061 0.218,-0.242 0.5,-0.363 0.838,-0.363 0.354,0 0.637,0.121 0.85,0.357 0.215,0.239 0.322,0.592 0.322,1.067 l 0,4.4 C 0.289,-1.045 0.195,-0.408 0,0"
             inkscape:connector-curvature="0"
             id="path134"
             style="fill:#363738;fill-opacity:1;fill-rule:nonzero;stroke:none" /></g><g
           transform="translate(394.8838,25.0488)"
           id="g136"><path
             d="M 0,0 C 1.021,0.445 2.109,0.602 3.211,0.621 4.178,0.637 5.155,0.547 6.104,0.457 6.172,0.721 6.239,0.992 6.306,1.256 5.391,1.67 4.385,1.822 3.389,1.814 3.341,1.957 3.293,2.102 3.243,2.248 4.002,2.314 4.512,3.221 4.138,3.895 3.971,4.275 3.598,4.486 3.211,4.52 2.818,4.551 2.41,4.4 2.186,4.053 1.701,3.438 2.08,2.463 2.818,2.27 2.861,2.113 2.906,1.957 2.952,1.799 1.817,1.732 0.659,1.479 -0.291,0.826 -0.192,0.553 -0.098,0.277 0,0"
             inkscape:connector-curvature="0"
             id="path138"
             style="fill:#363738;fill-opacity:1;fill-rule:nonzero;stroke:none" /></g><g
           transform="translate(409.6973,23.7617)"
           id="g140"><path
             d="m 0,0 c -0.305,-0.156 -0.361,-0.518 -0.345,-0.826 -0.337,-0.33 -0.177,-0.824 -0.216,-1.238 -0.075,-0.231 -0.351,-0.258 -0.543,-0.344 -0.267,0.406 -0.548,0.795 -0.903,1.125 l 0.001,0.019 c -0.386,0.362 -0.805,0.69 -1.247,0.979 -0.357,-0.381 -0.729,-0.752 -1.072,-1.151 0.676,-0.746 1.304,-1.541 1.855,-2.382 0.38,-0.643 0.689,-1.321 0.954,-2.016 0.572,0.291 1.135,0.598 1.703,0.897 -0.298,0.695 -0.645,1.376 -1.01,2.042 0.254,0.135 0.594,0.27 0.631,0.6 0.032,0.363 -0.053,0.758 0.17,1.08 0.438,-0.291 1.111,0.039 1.118,0.574 C 1.151,-0.088 0.457,0.316 0,0"
             inkscape:connector-curvature="0"
             id="path142"
             style="fill:#363738;fill-opacity:1;fill-rule:nonzero;stroke:none" /></g><g
           transform="translate(405.2148,19.1367)"
           id="g144"><path
             d="m 0,0 c -0.134,-0.924 -1.023,-1.715 -1.97,-1.654 -0.551,-0.045 -1.082,0.217 -1.454,0.603 -0.268,0.33 -0.489,0.717 -0.525,1.151 -0.128,0.945 0.536,1.916 1.459,2.142 0.408,0.113 0.831,0.053 1.231,-0.041 C -0.389,1.893 0.182,0.91 0,0 m -8.347,-1.957 c -0.374,-0.541 -0.909,-0.965 -1.525,-1.201 -1.159,-0.43 -2.568,-0.139 -3.4,0.787 -0.582,0.642 -0.929,1.502 -0.865,2.371 0.043,1.09 0.714,2.098 1.668,2.607 0.726,0.397 1.607,0.467 2.396,0.245 0.332,-0.084 0.64,-0.241 0.926,-0.43 0.582,-0.416 1.024,-1.031 1.214,-1.723 0.277,-0.886 0.105,-1.886 -0.414,-2.656 m 7.097,5.85 C -2.519,5.006 -4.159,5.758 -5.864,5.748 -6.281,5.752 -6.702,5.738 -7.12,5.717 -8.859,5.617 -10.583,5.258 -12.182,4.561 -14.05,3.74 -15.677,2.281 -16.5,0.383 c -0.793,-1.699 -0.783,-3.658 -0.425,-5.467 1.984,-0.496 3.996,-0.939 6.04,-1.037 1.253,-0.037 2.512,-0.07 3.765,-0.022 0.763,0.03 1.525,0.088 2.286,0.194 2.752,0.363 5.447,1.236 7.848,2.64 0,0 -0.329,1.811 -1.623,3.788 -0.744,1.234 -1.549,2.46 -2.641,3.414"
             inkscape:connector-curvature="0"
             id="path146"
             style="fill:#363738;fill-opacity:1;fill-rule:nonzero;stroke:none" /></g><g
           transform="translate(388.7402,22.375)"
           id="g148"><path
             d="m 0,0 c -0.805,-0.486 -1.468,-1.172 -2.02,-1.926 -0.164,0.297 -0.209,0.655 -0.419,0.924 -0.122,0.158 -0.334,0.094 -0.502,0.098 -0.213,-0.024 -0.422,0.033 -0.624,0.093 0.235,0.332 0.174,0.842 -0.188,1.059 -0.385,0.273 -0.979,0.035 -1.083,-0.422 -0.16,-0.504 0.372,-1.008 0.864,-0.875 0.263,-0.385 0.736,-0.324 1.138,-0.34 0.184,-0.312 0.318,-0.66 0.553,-0.941 -0.432,-0.856 -0.675,-1.807 -0.694,-2.762 0.551,-0.23 1.105,-0.467 1.661,-0.697 0.029,0.6 0.097,1.201 0.191,1.793 0.185,1.293 0.934,2.418 1.82,3.344 C 0.477,-0.422 0.233,-0.219 0,0"
             inkscape:connector-curvature="0"
             id="path150"
             style="fill:#363738;fill-opacity:1;fill-rule:nonzero;stroke:none" /></g><g
           transform="translate(398.0947,12.1504)"
           id="g152"><path
             d="m 0,0 c -0.879,-0.045 -1.76,-0.051 -2.637,-0.012 -1.412,0.073 -2.821,0.203 -4.201,0.508 -0.98,0.199 -1.936,0.483 -2.898,0.756 0.154,-1.231 0.65,-2.406 1.359,-3.414 0.838,-1.178 1.957,-2.258 3.35,-2.693 1.085,-0.291 2.381,-0.666 4.614,-0.629 0.138,0.002 0.274,0.009 0.413,0.013 1.703,0.063 3.367,0.307 4.869,0.944 1.043,0.451 2.024,1.062 2.864,1.83 0.728,0.683 1.297,1.539 1.69,2.459 0.382,0.865 0.723,2.42 0.686,3.22 C 8.114,1.842 5.877,0.855 3.601,0.469 2.415,0.213 1.209,0.066 0,0"
             inkscape:connector-curvature="0"
             id="path154"
             style="fill:#363738;fill-opacity:1;fill-rule:nonzero;stroke:none" /></g></g></g><g
       id="g156"><g
         clip-path="url(#clipPath160)"
         id="g158"><g
           transform="translate(723.8291,729.4346)"
           id="g164"><path
             d="m 0,0 c -7.537,0 -14.339,-3.14 -19.182,-8.178 -4.291,7.395 -12.289,12.371 -21.455,12.371 -10.676,0 -19.775,-6.749 -23.268,-16.213 -3.049,1.879 -6.637,2.966 -10.48,2.966 -5.388,0 -10.274,-2.134 -13.871,-5.6 -3.597,3.466 -8.482,5.6 -13.87,5.6 -0.629,0 -1.248,-0.033 -1.862,-0.091 0.078,0.834 0.123,1.678 0.123,2.533 0,14.697 -11.915,26.612 -26.613,26.612 -14.313,0 -25.981,-11.302 -26.584,-25.468 -3.028,1.848 -6.587,2.913 -10.396,2.913 -2.689,0 -5.254,-0.534 -7.597,-1.498 -0.15,0.094 -0.297,0.188 -0.449,0.279 -2.882,7.503 -10.152,12.831 -18.67,12.831 -11.045,0 -19.999,-8.953 -19.999,-19.999 0,-0.776 0.048,-1.539 0.134,-2.292 -0.113,0.002 -0.227,0.009 -0.341,0.009 -11.046,0 -20,-8.955 -20,-20 0,-10.767 8.51,-19.543 19.171,-19.978 l 0,-0.022 215.209,0 c 14.698,0 26.614,11.915 26.614,26.613 C 26.614,-11.915 14.698,0 0,0"
             inkscape:connector-curvature="0"
             id="path166"
             style="fill:#ffffff;fill-opacity:1;fill-rule:nonzero;stroke:none" /></g><g
           transform="translate(732.292,436.5469)"
           id="g168"><path
             d="m 0,0 c 1.928,3.421 3.037,7.362 3.037,11.566 0,13.05 -10.575,23.624 -23.621,23.624 -2.089,0 -4.105,-0.298 -6.034,-0.809 -5.567,32.569 -33.917,57.363 -68.068,57.363 -27.344,0 -50.975,-15.89 -62.168,-38.938 -4.17,1.894 -8.799,2.959 -13.679,2.959 -8.249,0 -15.789,-3.025 -21.584,-8.019 -4.066,13.679 -16.728,23.661 -31.728,23.661 -10.929,0 -20.622,-5.303 -26.65,-13.471 -11.656,10.978 -27.896,17.796 -45.866,17.796 -22.049,0 -41.499,-10.259 -53.064,-25.883 -5.356,3.725 -11.857,5.916 -18.875,5.916 -17.858,0 -32.405,-14.147 -33.068,-31.843 -5.985,5.961 -14.24,9.648 -23.355,9.648 -9.382,0 -17.847,-3.911 -23.872,-10.184 -4.557,14.537 -18.134,25.085 -34.175,25.085 -19.776,0 -35.81,-16.033 -35.81,-35.812 0,-4.291 0.756,-8.407 2.14,-12.222 -12.756,-0.328 -23.002,-10.75 -23.002,-23.588 0,-13.046 10.576,-23.621 23.622,-23.621 l 511.126,0 c 13.048,0 23.624,10.575 23.624,23.621 C 18.93,-11.713 10.798,-2.177 0,0"
             inkscape:connector-curvature="0"
             id="path170"
             style="fill:#ffffff;fill-opacity:1;fill-rule:nonzero;stroke:none" /></g><g
           transform="translate(371.6045,699.6724)"
           id="g172"><path
             d="m 0,0 c 0,19.686 -15.958,35.644 -35.643,35.644 -17.645,0 -32.286,-12.824 -35.134,-29.658 -2.846,2.12 -6.372,3.375 -10.192,3.375 -1.61,0 -3.165,-0.227 -4.641,-0.644 -1.934,7.311 -8.593,12.701 -16.511,12.701 -3.07,0 -5.953,-0.815 -8.442,-2.235 -3.536,6.712 -10.574,11.289 -18.686,11.289 -9.661,0 -17.8,-6.492 -20.308,-15.349 -4.384,3.914 -10.165,6.295 -16.505,6.295 -5.888,0 -11.296,-2.057 -15.549,-5.487 0.024,0.442 0.037,0.886 0.037,1.334 0,13.695 -11.103,24.797 -24.798,24.797 -4.736,0 -9.163,-1.33 -12.927,-3.634 -6.432,13.881 -20.478,23.515 -36.783,23.515 -21.566,0 -39.193,-16.851 -40.445,-38.103 -14.128,-2.413 -24.885,-14.707 -24.885,-29.524 0,-16.546 13.414,-29.96 29.961,-29.96 l 258.685,0 0,0.126 C -14.427,-34.051 0,-18.717 0,0"
             inkscape:connector-curvature="0"
             id="path174"
             style="fill:#ffffff;fill-opacity:1;fill-rule:nonzero;stroke:none" /></g><g
           transform="translate(746.8047,270.0303)"
           id="g176"><path
             d="m 0,0 c 2.156,3.988 3.379,8.553 3.379,13.403 0,15.598 -12.643,28.242 -28.239,28.242 -9.252,0 -17.464,-4.449 -22.616,-11.325 -3.291,2.15 -7.22,3.403 -11.446,3.403 -8.903,0 -16.507,-5.553 -19.55,-13.382 -3.115,3.271 -7.51,5.313 -12.384,5.313 -7.06,0 -13.118,-4.274 -15.731,-10.377 -2.867,4.097 -7.481,6.875 -12.763,7.26 0.485,2.568 0.75,5.215 0.75,7.926 0,23.448 -19.01,42.457 -42.458,42.457 -23.447,0 -42.456,-19.009 -42.456,-42.457 0,-0.197 0.011,-0.394 0.015,-0.59 -1.824,0.37 -3.714,0.566 -5.647,0.566 -15.599,0 -28.241,-12.644 -28.241,-28.241 0,-15.596 12.642,-28.24 28.241,-28.24 l 0,-0.146 204.358,0 c 7.473,0 13.531,6.057 13.531,13.531 C 8.743,-6.871 5.108,-1.935 0,0"
             inkscape:connector-curvature="0"
             id="path178"
             style="fill:#ffffff;fill-opacity:1;fill-rule:nonzero;stroke:none" /></g><g
           transform="translate(377.75,94.8047)"
           id="g180"><path
             d="m 0,0 c -6.659,0 -12.667,-2.775 -16.941,-7.228 -3.139,3.539 -7.717,5.769 -12.817,5.769 -2.643,0 -5.147,-0.6 -7.382,-1.667 -4.021,6.129 -10.359,10.599 -17.772,12.161 0.572,2.78 0.872,5.656 0.872,8.606 0,23.449 -19.008,42.458 -42.456,42.458 -17.899,0 -33.201,-11.083 -39.446,-26.757 -1.962,0.403 -3.995,0.618 -6.079,0.618 -14.371,0 -26.374,-10.124 -29.279,-23.627 -3.706,1.643 -7.804,2.563 -12.12,2.563 -2.772,0 -5.452,-0.385 -7.998,-1.089 -1.111,16.048 -14.474,28.725 -30.805,28.725 -8.566,0 -16.318,-3.489 -21.912,-9.124 -6.695,4.413 -14.708,6.989 -23.327,6.989 -23.447,0 -42.457,-19.009 -42.457,-42.459 0,-23.448 19.01,-42.458 42.457,-42.458 0.786,0 267.462,-0.462 267.462,-0.462 12.972,0 23.491,10.517 23.491,23.491 C 23.491,-10.517 12.972,0 0,0"
             inkscape:connector-curvature="0"
             id="path182"
             style="fill:#ffffff;fill-opacity:1;fill-rule:nonzero;stroke:none" /></g><g
           transform="translate(205.8325,264.4375)"
           id="g184"><path
             d="m 0,0 -0.134,0 c 0.036,0.036 0.072,0.075 0.109,0.113 C -0.016,0.075 -0.009,0.036 0,0 m 136.387,36.619 c -4.724,25.781 -27.289,45.324 -54.434,45.324 -30.355,0 -54.992,-24.438 -55.341,-54.712 -1.606,0.369 -3.275,0.567 -4.992,0.567 -5.552,0 -10.624,-2.032 -14.529,-5.387 -1.779,13.382 -13.229,23.707 -27.095,23.707 -2.089,0 -4.122,-0.243 -6.075,-0.685 -7.366,21.923 -28.067,37.724 -52.472,37.724 -27.506,0 -50.316,-20.065 -54.619,-46.356 -0.246,0.005 -0.491,0.019 -0.739,0.019 -20.335,0 -36.821,-16.485 -36.821,-36.82 0,-20.337 16.486,-36.822 36.821,-36.822 l 0,-0.191 266.451,0 0,0.191 c 20.335,0 36.821,16.485 36.821,36.822 0,19.036 -14.449,34.696 -32.976,36.619"
             inkscape:connector-curvature="0"
             id="path186"
             style="fill:#ffffff;fill-opacity:1;fill-rule:nonzero;stroke:none" /></g><g
           transform="translate(747.2383,84.3838)"
           id="g188"><path
             d="m 0,0 c 0,14.374 -11.653,26.025 -26.026,26.025 -1.583,0 -3.132,-0.149 -4.637,-0.42 0.004,0.141 0.01,0.28 0.01,0.42 0,9.509 -7.707,17.217 -17.215,17.217 -7.932,0 -14.607,-5.364 -16.603,-12.662 -2.681,2.882 -6.338,4.839 -10.442,5.353 0.658,2.88 1.018,5.872 1.018,8.95 0,22.065 -17.888,39.953 -39.953,39.953 -22.064,0 -39.954,-17.888 -39.954,-39.953 0,-0.38 0.02,-0.754 0.03,-1.129 -2.405,0.731 -4.952,1.129 -7.594,1.129 -13.321,0 -24.298,-10.012 -25.836,-22.919 -0.812,0.117 -1.642,0.182 -2.486,0.182 -8.686,0 -15.869,-6.436 -17.044,-14.798 -1.745,0.595 -3.616,0.923 -5.563,0.923 -9.508,0 -17.217,-7.707 -17.217,-17.215 0,-9.51 7.709,-17.217 17.217,-17.217 l 188.335,0 0,0.224 C -10.554,-24.882 0,-13.679 0,0"
             inkscape:connector-curvature="0"
             id="path190"
             style="fill:#ffffff;fill-opacity:1;fill-rule:nonzero;stroke:none" /></g><g
           transform="translate(570.7187,591.9189)"
           id="g192"><path
             d="m 0,0 c -4.478,0 -8.642,-1.352 -12.105,-3.667 -1.259,10.849 -10.475,19.273 -21.664,19.273 -10.701,0 -19.596,-7.708 -21.451,-17.876 -3.791,6.451 -10.794,10.783 -18.816,10.783 -6.169,0 -11.735,-2.565 -15.704,-6.681 -2.638,14.647 -15.443,25.763 -30.849,25.763 -15.837,0 -28.925,-11.742 -31.046,-26.995 -3.847,3.399 -8.9,5.465 -14.435,5.465 -3.58,0 -6.954,-0.868 -9.935,-2.395 -4.139,12.475 -15.894,21.478 -29.758,21.478 -15.642,0 -28.607,-11.454 -30.968,-26.434 -2.308,0.83 -4.793,1.286 -7.388,1.286 -12.047,0 -21.813,-9.766 -21.813,-21.814 0,-11.432 8.796,-20.804 19.988,-21.732 l 0,-0.082 245.944,0 c 12.047,0 21.814,9.766 21.814,21.814 C 21.814,-9.766 12.047,0 0,0"
             inkscape:connector-curvature="0"
             id="path194"
             style="fill:#ffffff;fill-opacity:1;fill-rule:nonzero;stroke:none" /></g><g
           transform="translate(533.374,205.2119)"
           id="g196"><path
             d="m 0,0 c -8.37,0 -15.712,-4.384 -19.867,-10.977 -2.84,2.392 -6.505,3.833 -10.509,3.833 -3.865,0 -7.414,-1.345 -10.21,-3.589 0.003,0.141 0.011,0.285 0.011,0.429 0,10.911 -8.846,19.758 -19.757,19.758 -7.478,0 -13.983,-4.155 -17.34,-10.283 -3.016,2.453 -6.861,3.927 -11.052,3.927 -4.182,0 -8.022,-1.468 -11.035,-3.914 -4.37,7.211 -12.289,12.029 -21.336,12.029 -13.769,0 -24.931,-11.162 -24.931,-24.931 0,-2.63 0.411,-5.164 1.166,-7.542 -5.267,-1.723 -9.074,-6.675 -9.074,-12.517 0,-6.948 5.381,-12.635 12.2,-13.132 l 0,-0.038 141.734,0 c 12.964,0 23.473,10.508 23.473,23.472 C 23.473,-10.51 12.964,0 0,0"
             inkscape:connector-curvature="0"
             id="path198"
             style="fill:#ffffff;fill-opacity:1;fill-rule:nonzero;stroke:none" /></g><g
           transform="translate(213.2007,540.4946)"
           id="g200"><path
             d="m 0,0 c 0.26,1.053 0.413,2.148 0.413,3.282 0,7.559 -6.128,13.686 -13.686,13.686 -0.741,0 -1.463,-0.074 -2.172,-0.188 -0.533,9.628 -8.506,17.271 -18.267,17.271 -5.861,0 -11.075,-2.759 -14.423,-7.047 -2.699,9.179 -11.179,15.882 -21.23,15.882 -9.517,0 -17.628,-6.006 -20.754,-14.434 -2.143,1.389 -4.691,2.204 -7.433,2.204 -7.558,0 -13.686,-6.129 -13.686,-13.688 -12.225,0 -22.132,-9.908 -22.132,-22.131 0,-11.733 9.132,-21.328 20.676,-22.078 l 0,-0.053 111.241,0 c 7.557,0 13.685,6.127 13.685,13.686 C 12.232,-6.541 6.875,-0.727 0,0"
             inkscape:connector-curvature="0"
             id="path202"
             style="fill:#ffffff;fill-opacity:1;fill-rule:nonzero;stroke:none" /></g></g></g></g></svg>